<svg xmlns="http://www.w3.org/2000/svg" width="97.965" height="117.4" viewBox="0 0 97.965 117.4">
  <g id="Group_13" data-name="Group 13" transform="translate(-206.25 -350)">
    <g id="unlogo" transform="translate(-25.16 13.731)">
      <circle id="Ellipse_4" data-name="Ellipse 4" cx="48.232" cy="48.232" r="48.232" transform="translate(232.16 356.454)" fill="#5a5b5e" stroke="#45b6a6" stroke-linecap="round" stroke-miterlimit="10" stroke-width="1.5"/>
      <g id="Group_12" data-name="Group 12">
        <rect id="Rectangle_25" data-name="Rectangle 25" width="5.862" height="57.898" transform="translate(259.688 361.208)" fill="#cbcdd3"/>
        <rect id="Rectangle_26" data-name="Rectangle 26" width="12.68" height="4.367" rx="0.334" transform="translate(256.313 375.282)" fill="#45b6a6"/>
        <path id="Path_19" data-name="Path 19" d="M267.1,361.21a10.044,10.044,0,0,1-.63,3.57l-.92,5.24.16-3.73a3.782,3.782,0,0,1-3.06,1.94,3.872,3.872,0,0,1-3.13-2.03l.17,4.1-1.02-5.98-.01-.06a9.756,9.756,0,0,1-.45-2.61v-.13c-.01-.1-.01-.21-.01-.31a10.259,10.259,0,0,1,.59-3.47l.01-.03.29-1.91.54-3.48-.6-2.01h-.16l-.01-.26v-.01l.06-.08,3.63-4.58,3.69,4.66.07.09c.05.06.02.18-.06.18h-.09l-.49,1.64.52,3.4.41,2.65A10.192,10.192,0,0,1,267.1,361.21Z" fill="#cbcdd3"/>
        <path id="Path_20" data-name="Path 20" d="M258.213,361.52v.12l-.01-.06Z" fill="#cbcdd3"/>
        <path id="Path_6" data-name="Path 6" d="M262.569,347.562a.413.413,0,0,1-.413-.413V343.9a.413.413,0,0,1,.826,0v3.253A.413.413,0,0,1,262.569,347.562Z" fill="#45b6a6"/>
        <path id="Path_12" data-name="Path 12" d="M262.3,341.913a4.6,4.6,0,0,1-.307-5.644,4.6,4.6,0,1,0,5.855,6.723A4.6,4.6,0,0,1,262.3,341.913Z" fill="#45b6a6"/>
        <path id="Path_6-2" data-name="Path 6" d="M259.827,362.658c-.21,0-.38-.28-.38-.626V357.1c0-.346.17-.626.38-.626s.38.28.38.626v4.93C260.206,362.379,260.036,362.658,259.827,362.658Z" fill="#45b6a6"/>
        <path id="Path_6-3" data-name="Path 6" d="M262.5,362.658c-.209,0-.379-.28-.379-.626V357.1c0-.346.17-.626.379-.626s.38.28.38.626v4.93C262.878,362.379,262.708,362.658,262.5,362.658Z" fill="#45b6a6"/>
        <path id="Path_6-4" data-name="Path 6" d="M265.17,362.658c-.21,0-.38-.28-.38-.626V357.1c0-.346.17-.626.38-.626s.38.28.38.626v4.93C265.549,362.379,265.379,362.658,265.17,362.658Z" fill="#45b6a6"/>
      </g>
      <path id="Path_4" data-name="Path 4" d="M302.887,432.129H259.175V419.7a4.847,4.847,0,0,1,4.847-4.847H298.04a4.847,4.847,0,0,1,4.847,4.847h0Z" fill="#cbcdd3"/>
      <rect id="Rectangle_4" data-name="Rectangle 4" width="31.977" height="4.873" transform="translate(265.408 409.975)" fill="#45b6a6"/>
      <g id="Group_2" data-name="Group 2">
        <rect id="Rectangle_5" data-name="Rectangle 5" width="1.534" height="3.639" transform="translate(294.261 410.595)" fill="#cbcdd3"/>
        <rect id="Rectangle_6" data-name="Rectangle 6" width="1.534" height="3.639" transform="translate(291.779 410.595)" fill="#cbcdd3"/>
        <rect id="Rectangle_7" data-name="Rectangle 7" width="1.534" height="3.639" transform="translate(289.302 410.595)" fill="#cbcdd3"/>
        <rect id="Rectangle_8" data-name="Rectangle 8" width="1.534" height="3.639" transform="translate(286.824 410.595)" fill="#cbcdd3"/>
        <rect id="Rectangle_9" data-name="Rectangle 9" width="1.534" height="3.639" transform="translate(284.348 410.595)" fill="#cbcdd3"/>
        <rect id="Rectangle_10" data-name="Rectangle 10" width="1.534" height="3.639" transform="translate(281.87 410.595)" fill="#cbcdd3"/>
        <rect id="Rectangle_11" data-name="Rectangle 11" width="1.534" height="3.639" transform="translate(279.393 410.595)" fill="#cbcdd3"/>
        <rect id="Rectangle_12" data-name="Rectangle 12" width="1.534" height="3.639" transform="translate(276.914 410.595)" fill="#cbcdd3"/>
        <rect id="Rectangle_13" data-name="Rectangle 13" width="1.534" height="3.639" transform="translate(274.439 410.595)" fill="#cbcdd3"/>
        <rect id="Rectangle_14" data-name="Rectangle 14" width="1.534" height="3.639" transform="translate(271.958 410.595)" fill="#cbcdd3"/>
        <rect id="Rectangle_15" data-name="Rectangle 15" width="1.534" height="3.639" transform="translate(269.48 410.595)" fill="#cbcdd3"/>
        <rect id="Rectangle_16" data-name="Rectangle 16" width="1.534" height="3.639" transform="translate(267.001 410.595)" fill="#cbcdd3"/>
        <path id="Path_5" data-name="Path 5" d="M265.409,409.974c0-6.69,7.154-15.7,15.989-15.7s15.989,9.012,15.989,15.7" fill="#cbcdd3"/>
        <rect id="Rectangle_17" data-name="Rectangle 17" width="6.667" height="1.643" transform="translate(278.064 393.571)" fill="#cbcdd3"/>
      </g>
      <path id="Path_6-5" data-name="Path 6" d="M281.492,392.945a.626.626,0,0,1-.626-.626v-4.928a.626.626,0,0,1,1.252,0v4.93A.626.626,0,0,1,281.492,392.945Z" fill="#45b6a6"/>
      <rect id="Rectangle_18" data-name="Rectangle 18" width="4.201" height="2.504" transform="translate(279.392 391.065)" fill="#45b6a6"/>
      <g id="Group_3" data-name="Group 3">
        <path id="Path_7" data-name="Path 7" d="M300.86,432.129h-6.148v-8.284a2.306,2.306,0,0,1,2.3-2.3h1.537a2.306,2.306,0,0,1,2.306,2.3v8.284Z" fill="#45b6a6"/>
        <path id="Path_8" data-name="Path 8" d="M292.483,432.129h-6.148v-8.284a2.306,2.306,0,0,1,2.306-2.3h1.537a2.305,2.305,0,0,1,2.3,2.3h0Z" fill="#45b6a6"/>
        <path id="Path_9" data-name="Path 9" d="M284.105,432.129h-6.148v-8.284a2.307,2.307,0,0,1,2.306-2.3H281.8a2.306,2.306,0,0,1,2.306,2.3v8.284Z" fill="#45b6a6"/>
        <path id="Path_10" data-name="Path 10" d="M275.732,432.129h-6.148v-8.284a2.306,2.306,0,0,1,2.3-2.3h1.537a2.3,2.3,0,0,1,2.3,2.3h0v8.284Z" fill="#45b6a6"/>
        <path id="Path_11" data-name="Path 11" d="M267.35,432.129H261.2v-8.284a2.306,2.306,0,0,1,2.3-2.3h1.537a2.305,2.305,0,0,1,2.3,2.3h0v8.284Z" fill="#45b6a6"/>
      </g>
      <rect id="Rectangle_19" data-name="Rectangle 19" width="34.182" height="1.233" transform="translate(264.276 408.933)" fill="#45b6a6"/>
      <path id="Path_12-2" data-name="Path 12" d="M281.081,384.384a6.971,6.971,0,0,1-.465-8.553,6.975,6.975,0,1,0,8.874,10.188A6.972,6.972,0,0,1,281.081,384.384Z" fill="#45b6a6"/>
      <path id="Path_13" data-name="Path 13" d="M314.12,375.894l-10.292,9.541,10.292,9.541-10.292,9.542,10.358,9.6-10.028,9.3,10.226,9.48" transform="translate(0 -1)" fill="none" stroke="#45b6a6" stroke-linecap="round" stroke-miterlimit="10" stroke-width="1"/>
      <path id="Path_13-2" data-name="Path 13" d="M317.4,375.894l-10.292,9.541,10.292,9.541-10.292,9.542,10.358,9.6-10.028,9.3,10.226,9.48" transform="translate(1 -1)" fill="none" stroke="#45b6a6" stroke-linecap="round" stroke-miterlimit="10" stroke-width="1"/>
      <path id="Path_14" data-name="Path 14" d="M247.88,375.1l10.292,9.541-2.335,2.165-7.957,7.377,10.292,9.541-10.358,9.6,10.028,9.3L247.616,432.1" transform="translate(-1)" fill="none" stroke="#45b6a6" stroke-linecap="round" stroke-miterlimit="10" stroke-width="1"/>
      <path id="Path_14-2" data-name="Path 14" d="M243.969,375.1l10.292,9.541-2.335,2.165-7.957,7.377,10.292,9.541-10.358,9.6,10.028,9.3L243.705,432.1" transform="translate(-1)" fill="none" stroke="#45b6a6" stroke-linecap="round" stroke-miterlimit="10" stroke-width="1"/>
    </g>
  </g>
</svg>
