<svg xmlns="http://www.w3.org/2000/svg" xmlns:xlink="http://www.w3.org/1999/xlink" width="360" height="640" viewBox="0 0 360 640">
  <defs>
    <filter id="Path_1" x="315.418" y="149" width="42.642" height="67.5" filterUnits="userSpaceOnUse">
      <feOffset dy="3" input="SourceAlpha"/>
      <feGaussianBlur stdDeviation="3" result="blur"/>
      <feFlood flood-opacity="0.161"/>
      <feComposite operator="in" in2="blur"/>
      <feComposite in="SourceGraphic"/>
    </filter>
    <filter id="Path_1-2" x="315.418" y="238" width="42.642" height="67.5" filterUnits="userSpaceOnUse">
      <feOffset dy="3" input="SourceAlpha"/>
      <feGaussianBlur stdDeviation="3" result="blur-2"/>
      <feFlood flood-opacity="0.161"/>
      <feComposite operator="in" in2="blur-2"/>
      <feComposite in="SourceGraphic"/>
    </filter>
    <filter id="Path_1-3" x="315.418" y="327" width="42.642" height="67.5" filterUnits="userSpaceOnUse">
      <feOffset dy="3" input="SourceAlpha"/>
      <feGaussianBlur stdDeviation="3" result="blur-3"/>
      <feFlood flood-opacity="0.161"/>
      <feComposite operator="in" in2="blur-3"/>
      <feComposite in="SourceGraphic"/>
    </filter>
    <filter id="Path_1-4" x="315.418" y="416" width="42.642" height="67.5" filterUnits="userSpaceOnUse">
      <feOffset dy="3" input="SourceAlpha"/>
      <feGaussianBlur stdDeviation="3" result="blur-4"/>
      <feFlood flood-opacity="0.161"/>
      <feComposite operator="in" in2="blur-4"/>
      <feComposite in="SourceGraphic"/>
    </filter>
    <filter id="Path_1-5" x="315.418" y="505" width="42.642" height="67.5" filterUnits="userSpaceOnUse">
      <feOffset dy="3" input="SourceAlpha"/>
      <feGaussianBlur stdDeviation="3" result="blur-5"/>
      <feFlood flood-opacity="0.161"/>
      <feComposite operator="in" in2="blur-5"/>
      <feComposite in="SourceGraphic"/>
    </filter>
    <clipPath id="clip-Iintro">
      <rect width="360" height="640"/>
    </clipPath>
  </defs>
  <g id="Iintro" clip-path="url(#clip-Iintro)">
    <rect width="360" height="640" fill="#fff"/>
    <g id="Group_5" data-name="Group 5">
      <g id="islam" transform="translate(299.267 155)" opacity="0.47">
        <g transform="matrix(1, 0, 0, 1, -299.27, -155)" filter="url(#Path_1)">
          <path id="Path_1-6" data-name="Path 1" d="M124.131,19.341h-2.114a10.671,10.671,0,0,0-4.524-8.686c-.159-1.891-2.106-3.676-3.161-4.512a2.025,2.025,0,0,0,.762-1.632,1.878,1.878,0,0,0-1.247-1.871V.424a.359.359,0,1,0-.706,0V2.641a1.878,1.878,0,0,0-1.247,1.871,2.025,2.025,0,0,0,.762,1.632c-1.056.837-3,2.622-3.161,4.513a10.681,10.681,0,0,0-4.524,8.685h-2.114a1.876,1.876,0,0,0-1.683,2.019v.6a1.876,1.876,0,0,0,1.683,2.019h1.974V42.671h-1.974a1.876,1.876,0,0,0-1.683,2.019v.6a1.876,1.876,0,0,0,1.683,2.019h1.974v1.77a.393.393,0,0,0,.353.424H121.8a.393.393,0,0,0,.353-.424v-1.77h1.974a1.876,1.876,0,0,0,1.683-2.019v-.6a1.876,1.876,0,0,0-1.683-2.019h-1.974V23.977h1.974a1.876,1.876,0,0,0,1.683-2.019v-.6A1.876,1.876,0,0,0,124.131,19.341ZM113.493,3.44a1,1,0,0,1,.893,1.072.908.908,0,1,1-1.787,0A1,1,0,0,1,113.493,3.44Zm0,3.069c.917.655,2.709,2.2,3.185,3.687a7.179,7.179,0,0,0-6.369,0C110.783,8.7,112.576,7.164,113.493,6.509Zm0,3.79a7.134,7.134,0,0,1,5.324,2.531h-1.405a.431.431,0,0,0,0,.847h2.073a10.056,10.056,0,0,1,1.331,2.741h-4.568a.431.431,0,0,0,0,.847h4.8a11.222,11.222,0,0,1,.266,2.075H105.676C105.856,14.318,109.293,10.3,113.493,10.3Zm7.958,38.354H105.535V47.307h15.915Zm3.657-3.963v.174h-1.837a.431.431,0,0,0,0,.847h1.769a1,1,0,0,1-.909.748H102.855a1.089,1.089,0,0,1-.977-1.171v-.6a1.089,1.089,0,0,1,.977-1.171h21.276A1.089,1.089,0,0,1,125.107,44.69ZM110.09,42.671h-1.549V36.283a.359.359,0,1,0-.706,0v6.388h-.412V31.892a1.356,1.356,0,1,1,2.668,0Zm4.737,0h-1.175V37.878a.359.359,0,1,0-.706,0v4.793h-.786V27.7a1.356,1.356,0,1,1,2.668,0Zm4.737,0h-.3V35.984a.359.359,0,1,0-.706,0v6.687H116.9V31.892a1.356,1.356,0,1,1,2.668,0Zm1.886,0h-1.18V31.892a2.074,2.074,0,1,0-4.081,0V42.671h-.656V27.7a2.074,2.074,0,1,0-4.081,0V42.671H110.8V31.892a2.074,2.074,0,1,0-4.081,0V42.671h-1.18V25.94h3.275a.431.431,0,0,0,0-.847h-3.275V23.977h15.915Zm3.657-20.712a1.089,1.089,0,0,1-.977,1.171H102.855a1.04,1.04,0,0,1-.955-.929h4.418a.431.431,0,0,0,0-.847h-4.439a1.087,1.087,0,0,1,.976-1.165h21.276a1.089,1.089,0,0,1,.977,1.171Z" transform="translate(223.25 155)" fill="#869694"/>
        </g>
      </g>
      <line id="Line_2" data-name="Line 2" x1="344" transform="translate(16.5 210.5)" fill="none" stroke="#ccc6c6" stroke-width="1" opacity="0.5"/>
      <text id="Subah" transform="translate(16 166)" fill="#49c4b7" font-size="21" font-family="Roboto-Medium, Roboto" font-weight="500"><tspan x="0" y="0">Subah</tspan></text>
      <text id="_21:30_" data-name="21:30 " transform="translate(16 197)" fill="#aaa" font-size="16" font-family="Roboto-Regular, Roboto"><tspan x="0" y="0">21:30 </tspan></text>
    </g>
    <g id="Group_6" data-name="Group 6" transform="translate(0 89)">
      <g id="islamun" transform="translate(299.267 155)">
        <g transform="matrix(1, 0, 0, 1, -299.27, -244)" filter="url(#Path_1-2)">
          <path id="Path_1-7" data-name="Path 1" d="M124.131,19.341h-2.114a10.671,10.671,0,0,0-4.524-8.686c-.159-1.891-2.106-3.676-3.161-4.512a2.025,2.025,0,0,0,.762-1.632,1.878,1.878,0,0,0-1.247-1.871V.424a.359.359,0,1,0-.706,0V2.641a1.878,1.878,0,0,0-1.247,1.871,2.025,2.025,0,0,0,.762,1.632c-1.056.837-3,2.622-3.161,4.513a10.681,10.681,0,0,0-4.524,8.685h-2.114a1.876,1.876,0,0,0-1.683,2.019v.6a1.876,1.876,0,0,0,1.683,2.019h1.974V42.671h-1.974a1.876,1.876,0,0,0-1.683,2.019v.6a1.876,1.876,0,0,0,1.683,2.019h1.974v1.77a.393.393,0,0,0,.353.424H121.8a.393.393,0,0,0,.353-.424v-1.77h1.974a1.876,1.876,0,0,0,1.683-2.019v-.6a1.876,1.876,0,0,0-1.683-2.019h-1.974V23.977h1.974a1.876,1.876,0,0,0,1.683-2.019v-.6A1.876,1.876,0,0,0,124.131,19.341ZM113.493,3.44a1,1,0,0,1,.893,1.072.908.908,0,1,1-1.787,0A1,1,0,0,1,113.493,3.44Zm0,3.069c.917.655,2.709,2.2,3.185,3.687a7.179,7.179,0,0,0-6.369,0C110.783,8.7,112.576,7.164,113.493,6.509Zm0,3.79a7.134,7.134,0,0,1,5.324,2.531h-1.405a.431.431,0,0,0,0,.847h2.073a10.056,10.056,0,0,1,1.331,2.741h-4.568a.431.431,0,0,0,0,.847h4.8a11.222,11.222,0,0,1,.266,2.075H105.676C105.856,14.318,109.293,10.3,113.493,10.3Zm7.958,38.354H105.535V47.307h15.915Zm3.657-3.963v.174h-1.837a.431.431,0,0,0,0,.847h1.769a1,1,0,0,1-.909.748H102.855a1.089,1.089,0,0,1-.977-1.171v-.6a1.089,1.089,0,0,1,.977-1.171h21.276A1.089,1.089,0,0,1,125.107,44.69ZM110.09,42.671h-1.549V36.283a.359.359,0,1,0-.706,0v6.388h-.412V31.892a1.356,1.356,0,1,1,2.668,0Zm4.737,0h-1.175V37.878a.359.359,0,1,0-.706,0v4.793h-.786V27.7a1.356,1.356,0,1,1,2.668,0Zm4.737,0h-.3V35.984a.359.359,0,1,0-.706,0v6.687H116.9V31.892a1.356,1.356,0,1,1,2.668,0Zm1.886,0h-1.18V31.892a2.074,2.074,0,1,0-4.081,0V42.671h-.656V27.7a2.074,2.074,0,1,0-4.081,0V42.671H110.8V31.892a2.074,2.074,0,1,0-4.081,0V42.671h-1.18V25.94h3.275a.431.431,0,0,0,0-.847h-3.275V23.977h15.915Zm3.657-20.712a1.089,1.089,0,0,1-.977,1.171H102.855a1.04,1.04,0,0,1-.955-.929h4.418a.431.431,0,0,0,0-.847h-4.439a1.087,1.087,0,0,1,.976-1.165h21.276a1.089,1.089,0,0,1,.977,1.171Z" transform="translate(223.25 244)" fill="#49c4b7"/>
        </g>
      </g>
      <line id="Line_2-2" data-name="Line 2" x1="344" transform="translate(16.5 210.5)" fill="none" stroke="#ccc6c6" stroke-width="1" opacity="0.5"/>
      <text id="Subah-2" data-name="Subah" transform="translate(16 166)" fill="#49c4b7" font-size="21" font-family="Roboto-Medium, Roboto" font-weight="500"><tspan x="0" y="0">Subah</tspan></text>
      <text id="_21:30_2" data-name="21:30 " transform="translate(16 197)" fill="#aaa" font-size="16" font-family="Roboto-Regular, Roboto"><tspan x="0" y="0">21:30 </tspan></text>
    </g>
    <g id="Group_7" data-name="Group 7" transform="translate(0 178)">
      <g id="islam-2" data-name="islam" transform="translate(299.267 155)">
        <g transform="matrix(1, 0, 0, 1, -299.27, -333)" filter="url(#Path_1-3)">
          <path id="Path_1-8" data-name="Path 1" d="M124.131,19.341h-2.114a10.671,10.671,0,0,0-4.524-8.686c-.159-1.891-2.106-3.676-3.161-4.512a2.025,2.025,0,0,0,.762-1.632,1.878,1.878,0,0,0-1.247-1.871V.424a.359.359,0,1,0-.706,0V2.641a1.878,1.878,0,0,0-1.247,1.871,2.025,2.025,0,0,0,.762,1.632c-1.056.837-3,2.622-3.161,4.513a10.681,10.681,0,0,0-4.524,8.685h-2.114a1.876,1.876,0,0,0-1.683,2.019v.6a1.876,1.876,0,0,0,1.683,2.019h1.974V42.671h-1.974a1.876,1.876,0,0,0-1.683,2.019v.6a1.876,1.876,0,0,0,1.683,2.019h1.974v1.77a.393.393,0,0,0,.353.424H121.8a.393.393,0,0,0,.353-.424v-1.77h1.974a1.876,1.876,0,0,0,1.683-2.019v-.6a1.876,1.876,0,0,0-1.683-2.019h-1.974V23.977h1.974a1.876,1.876,0,0,0,1.683-2.019v-.6A1.876,1.876,0,0,0,124.131,19.341ZM113.493,3.44a1,1,0,0,1,.893,1.072.908.908,0,1,1-1.787,0A1,1,0,0,1,113.493,3.44Zm0,3.069c.917.655,2.709,2.2,3.185,3.687a7.179,7.179,0,0,0-6.369,0C110.783,8.7,112.576,7.164,113.493,6.509Zm0,3.79a7.134,7.134,0,0,1,5.324,2.531h-1.405a.431.431,0,0,0,0,.847h2.073a10.056,10.056,0,0,1,1.331,2.741h-4.568a.431.431,0,0,0,0,.847h4.8a11.222,11.222,0,0,1,.266,2.075H105.676C105.856,14.318,109.293,10.3,113.493,10.3Zm7.958,38.354H105.535V47.307h15.915Zm3.657-3.963v.174h-1.837a.431.431,0,0,0,0,.847h1.769a1,1,0,0,1-.909.748H102.855a1.089,1.089,0,0,1-.977-1.171v-.6a1.089,1.089,0,0,1,.977-1.171h21.276A1.089,1.089,0,0,1,125.107,44.69ZM110.09,42.671h-1.549V36.283a.359.359,0,1,0-.706,0v6.388h-.412V31.892a1.356,1.356,0,1,1,2.668,0Zm4.737,0h-1.175V37.878a.359.359,0,1,0-.706,0v4.793h-.786V27.7a1.356,1.356,0,1,1,2.668,0Zm4.737,0h-.3V35.984a.359.359,0,1,0-.706,0v6.687H116.9V31.892a1.356,1.356,0,1,1,2.668,0Zm1.886,0h-1.18V31.892a2.074,2.074,0,1,0-4.081,0V42.671h-.656V27.7a2.074,2.074,0,1,0-4.081,0V42.671H110.8V31.892a2.074,2.074,0,1,0-4.081,0V42.671h-1.18V25.94h3.275a.431.431,0,0,0,0-.847h-3.275V23.977h15.915Zm3.657-20.712a1.089,1.089,0,0,1-.977,1.171H102.855a1.04,1.04,0,0,1-.955-.929h4.418a.431.431,0,0,0,0-.847h-4.439a1.087,1.087,0,0,1,.976-1.165h21.276a1.089,1.089,0,0,1,.977,1.171Z" transform="translate(223.25 333)" fill="#49c4b7"/>
        </g>
      </g>
      <line id="Line_2-3" data-name="Line 2" x1="344" transform="translate(16.5 210.5)" fill="none" stroke="#ccc6c6" stroke-width="1" opacity="0.5"/>
      <text id="Subah-3" data-name="Subah" transform="translate(16 166)" fill="#49c4b7" font-size="21" font-family="Roboto-Medium, Roboto" font-weight="500"><tspan x="0" y="0">Subah</tspan></text>
      <text id="_21:30_3" data-name="21:30 " transform="translate(16 197)" fill="#aaa" font-size="16" font-family="Roboto-Regular, Roboto"><tspan x="0" y="0">21:30 </tspan></text>
    </g>
    <g id="Group_8" data-name="Group 8" transform="translate(0 267)">
      <g id="islam-3" data-name="islam" transform="translate(299.267 155)">
        <g transform="matrix(1, 0, 0, 1, -299.27, -422)" filter="url(#Path_1-4)">
          <path id="Path_1-9" data-name="Path 1" d="M124.131,19.341h-2.114a10.671,10.671,0,0,0-4.524-8.686c-.159-1.891-2.106-3.676-3.161-4.512a2.025,2.025,0,0,0,.762-1.632,1.878,1.878,0,0,0-1.247-1.871V.424a.359.359,0,1,0-.706,0V2.641a1.878,1.878,0,0,0-1.247,1.871,2.025,2.025,0,0,0,.762,1.632c-1.056.837-3,2.622-3.161,4.513a10.681,10.681,0,0,0-4.524,8.685h-2.114a1.876,1.876,0,0,0-1.683,2.019v.6a1.876,1.876,0,0,0,1.683,2.019h1.974V42.671h-1.974a1.876,1.876,0,0,0-1.683,2.019v.6a1.876,1.876,0,0,0,1.683,2.019h1.974v1.77a.393.393,0,0,0,.353.424H121.8a.393.393,0,0,0,.353-.424v-1.77h1.974a1.876,1.876,0,0,0,1.683-2.019v-.6a1.876,1.876,0,0,0-1.683-2.019h-1.974V23.977h1.974a1.876,1.876,0,0,0,1.683-2.019v-.6A1.876,1.876,0,0,0,124.131,19.341ZM113.493,3.44a1,1,0,0,1,.893,1.072.908.908,0,1,1-1.787,0A1,1,0,0,1,113.493,3.44Zm0,3.069c.917.655,2.709,2.2,3.185,3.687a7.179,7.179,0,0,0-6.369,0C110.783,8.7,112.576,7.164,113.493,6.509Zm0,3.79a7.134,7.134,0,0,1,5.324,2.531h-1.405a.431.431,0,0,0,0,.847h2.073a10.056,10.056,0,0,1,1.331,2.741h-4.568a.431.431,0,0,0,0,.847h4.8a11.222,11.222,0,0,1,.266,2.075H105.676C105.856,14.318,109.293,10.3,113.493,10.3Zm7.958,38.354H105.535V47.307h15.915Zm3.657-3.963v.174h-1.837a.431.431,0,0,0,0,.847h1.769a1,1,0,0,1-.909.748H102.855a1.089,1.089,0,0,1-.977-1.171v-.6a1.089,1.089,0,0,1,.977-1.171h21.276A1.089,1.089,0,0,1,125.107,44.69ZM110.09,42.671h-1.549V36.283a.359.359,0,1,0-.706,0v6.388h-.412V31.892a1.356,1.356,0,1,1,2.668,0Zm4.737,0h-1.175V37.878a.359.359,0,1,0-.706,0v4.793h-.786V27.7a1.356,1.356,0,1,1,2.668,0Zm4.737,0h-.3V35.984a.359.359,0,1,0-.706,0v6.687H116.9V31.892a1.356,1.356,0,1,1,2.668,0Zm1.886,0h-1.18V31.892a2.074,2.074,0,1,0-4.081,0V42.671h-.656V27.7a2.074,2.074,0,1,0-4.081,0V42.671H110.8V31.892a2.074,2.074,0,1,0-4.081,0V42.671h-1.18V25.94h3.275a.431.431,0,0,0,0-.847h-3.275V23.977h15.915Zm3.657-20.712a1.089,1.089,0,0,1-.977,1.171H102.855a1.04,1.04,0,0,1-.955-.929h4.418a.431.431,0,0,0,0-.847h-4.439a1.087,1.087,0,0,1,.976-1.165h21.276a1.089,1.089,0,0,1,.977,1.171Z" transform="translate(223.25 422)" fill="#49c4b7"/>
        </g>
      </g>
      <line id="Line_2-4" data-name="Line 2" x1="344" transform="translate(16.5 210.5)" fill="none" stroke="#ccc6c6" stroke-width="1" opacity="0.5"/>
      <text id="Subah-4" data-name="Subah" transform="translate(16 166)" fill="#49c4b7" font-size="21" font-family="Roboto-Medium, Roboto" font-weight="500"><tspan x="0" y="0">Subah</tspan></text>
      <text id="_21:30_4" data-name="21:30 " transform="translate(16 197)" fill="#aaa" font-size="16" font-family="Roboto-Regular, Roboto"><tspan x="0" y="0">21:30 </tspan></text>
    </g>
    <g id="Group_9" data-name="Group 9" transform="translate(0 356)">
      <g id="islam-4" data-name="islam" transform="translate(299.267 155)">
        <g transform="matrix(1, 0, 0, 1, -299.27, -511)" filter="url(#Path_1-5)">
          <path id="Path_1-10" data-name="Path 1" d="M124.131,19.341h-2.114a10.671,10.671,0,0,0-4.524-8.686c-.159-1.891-2.106-3.676-3.161-4.512a2.025,2.025,0,0,0,.762-1.632,1.878,1.878,0,0,0-1.247-1.871V.424a.359.359,0,1,0-.706,0V2.641a1.878,1.878,0,0,0-1.247,1.871,2.025,2.025,0,0,0,.762,1.632c-1.056.837-3,2.622-3.161,4.513a10.681,10.681,0,0,0-4.524,8.685h-2.114a1.876,1.876,0,0,0-1.683,2.019v.6a1.876,1.876,0,0,0,1.683,2.019h1.974V42.671h-1.974a1.876,1.876,0,0,0-1.683,2.019v.6a1.876,1.876,0,0,0,1.683,2.019h1.974v1.77a.393.393,0,0,0,.353.424H121.8a.393.393,0,0,0,.353-.424v-1.77h1.974a1.876,1.876,0,0,0,1.683-2.019v-.6a1.876,1.876,0,0,0-1.683-2.019h-1.974V23.977h1.974a1.876,1.876,0,0,0,1.683-2.019v-.6A1.876,1.876,0,0,0,124.131,19.341ZM113.493,3.44a1,1,0,0,1,.893,1.072.908.908,0,1,1-1.787,0A1,1,0,0,1,113.493,3.44Zm0,3.069c.917.655,2.709,2.2,3.185,3.687a7.179,7.179,0,0,0-6.369,0C110.783,8.7,112.576,7.164,113.493,6.509Zm0,3.79a7.134,7.134,0,0,1,5.324,2.531h-1.405a.431.431,0,0,0,0,.847h2.073a10.056,10.056,0,0,1,1.331,2.741h-4.568a.431.431,0,0,0,0,.847h4.8a11.222,11.222,0,0,1,.266,2.075H105.676C105.856,14.318,109.293,10.3,113.493,10.3Zm7.958,38.354H105.535V47.307h15.915Zm3.657-3.963v.174h-1.837a.431.431,0,0,0,0,.847h1.769a1,1,0,0,1-.909.748H102.855a1.089,1.089,0,0,1-.977-1.171v-.6a1.089,1.089,0,0,1,.977-1.171h21.276A1.089,1.089,0,0,1,125.107,44.69ZM110.09,42.671h-1.549V36.283a.359.359,0,1,0-.706,0v6.388h-.412V31.892a1.356,1.356,0,1,1,2.668,0Zm4.737,0h-1.175V37.878a.359.359,0,1,0-.706,0v4.793h-.786V27.7a1.356,1.356,0,1,1,2.668,0Zm4.737,0h-.3V35.984a.359.359,0,1,0-.706,0v6.687H116.9V31.892a1.356,1.356,0,1,1,2.668,0Zm1.886,0h-1.18V31.892a2.074,2.074,0,1,0-4.081,0V42.671h-.656V27.7a2.074,2.074,0,1,0-4.081,0V42.671H110.8V31.892a2.074,2.074,0,1,0-4.081,0V42.671h-1.18V25.94h3.275a.431.431,0,0,0,0-.847h-3.275V23.977h15.915Zm3.657-20.712a1.089,1.089,0,0,1-.977,1.171H102.855a1.04,1.04,0,0,1-.955-.929h4.418a.431.431,0,0,0,0-.847h-4.439a1.087,1.087,0,0,1,.976-1.165h21.276a1.089,1.089,0,0,1,.977,1.171Z" transform="translate(223.25 511)" fill="#49c4b7"/>
        </g>
      </g>
      <line id="Line_2-5" data-name="Line 2" x1="344" transform="translate(16.5 210.5)" fill="none" stroke="#ccc6c6" stroke-width="1" opacity="0.5"/>
      <text id="Subah-5" data-name="Subah" transform="translate(16 166)" fill="#49c4b7" font-size="21" font-family="Roboto-Medium, Roboto" font-weight="500"><tspan x="0" y="0">Subah</tspan></text>
      <text id="_21:30_5" data-name="21:30 " transform="translate(16 197)" fill="#aaa" font-size="16" font-family="Roboto-Regular, Roboto"><tspan x="0" y="0">21:30 </tspan></text>
    </g>
    <text id="Beni_-_Mellal" data-name="Beni - Mellal" transform="translate(131 74)" fill="#fd003a" font-size="20" font-family="Roboto-Medium, Roboto" font-weight="500"><tspan x="0" y="0">Beni - Mellal</tspan></text>
    <g id="placeholder" transform="translate(-55 56.559)">
      <path id="Path_2" data-name="Path 2" d="M83,0a6.9,6.9,0,0,0-7,6.774,6.522,6.522,0,0,0,1.05,3.556L82.525,19a.554.554,0,0,0,.4.26.588.588,0,0,0,.6-.271l5.491-8.751A6.519,6.519,0,0,0,90,6.774,6.9,6.9,0,0,0,83,0Zm0,10.161a3.44,3.44,0,0,1-3.5-3.387,3.5,3.5,0,0,1,7,0A3.432,3.432,0,0,1,83,10.161Z" fill="#fd003a"/>
      <path id="Path_3" data-name="Path 3" d="M256,0V3.387a3.387,3.387,0,1,1,0,6.774v9.107a.559.559,0,0,0,.5-.278l5.314-8.751a6.681,6.681,0,0,0,.96-3.466A6.78,6.78,0,0,0,256,0Z" transform="translate(-172.774)" fill="#fd003a"/>
    </g>
    <path id="paths" d="M12,4a8,8,0,0,0,0,16,8.69,8.69,0,0,0,8-6H18a6.947,6.947,0,0,1-6,4A6,6,0,0,1,12,6a4.668,4.668,0,0,1,4,2l-3,3h7V4L18,6A12.6,12.6,0,0,0,12,4Z" transform="translate(319 54)" fill="#fd003a" fill-rule="evenodd"/>
    <g id="Rectangle_20" data-name="Rectangle 20" transform="translate(144 144)" fill="#fff" stroke="#707070" stroke-width="1">
      <rect width="31" height="67" stroke="none"/>
      <rect x="0.5" y="0.5" width="30" height="66" fill="none"/>
    </g>
    <g id="Rectangle_21" data-name="Rectangle 21" transform="translate(92 144)" fill="#fff" stroke="#707070" stroke-width="1">
      <rect width="27" height="1" stroke="none"/>
      <rect x="0.5" y="0.5" width="26" fill="none"/>
    </g>
    <g id="Rectangle_22" data-name="Rectangle 22" transform="translate(92 210)" fill="#fff" stroke="#707070" stroke-width="1">
      <rect width="27" height="1" stroke="none"/>
      <rect x="0.5" y="0.5" width="26" fill="none"/>
    </g>
  </g>
</svg>
