<svg xmlns="http://www.w3.org/2000/svg" xmlns:xlink="http://www.w3.org/1999/xlink" width="42.642" height="67.5" viewBox="0 0 42.642 67.5">
  <defs>
    <filter id="Path_1" x="0" y="0" width="42.642" height="67.5" filterUnits="userSpaceOnUse">
      <feOffset dy="3" input="SourceAlpha"/>
      <feGaussianBlur stdDeviation="3" result="blur"/>
      <feFlood flood-opacity="0.161"/>
      <feComposite operator="in" in2="blur"/>
      <feComposite in="SourceGraphic"/>
    </filter>
  </defs>
  <g transform="matrix(1, 0, 0, 1, 0, 0)" filter="url(#Path_1)">
    <path id="Path_1-2" data-name="Path 1" d="M124.131,19.341h-2.114a10.671,10.671,0,0,0-4.524-8.686c-.159-1.891-2.106-3.676-3.161-4.512a2.025,2.025,0,0,0,.762-1.632,1.878,1.878,0,0,0-1.247-1.871V.424a.359.359,0,1,0-.706,0V2.641a1.878,1.878,0,0,0-1.247,1.871,2.025,2.025,0,0,0,.762,1.632c-1.056.837-3,2.622-3.161,4.513a10.681,10.681,0,0,0-4.524,8.685h-2.114a1.876,1.876,0,0,0-1.683,2.019v.6a1.876,1.876,0,0,0,1.683,2.019h1.974V42.671h-1.974a1.876,1.876,0,0,0-1.683,2.019v.6a1.876,1.876,0,0,0,1.683,2.019h1.974v1.77a.393.393,0,0,0,.353.424H121.8a.393.393,0,0,0,.353-.424v-1.77h1.974a1.876,1.876,0,0,0,1.683-2.019v-.6a1.876,1.876,0,0,0-1.683-2.019h-1.974V23.977h1.974a1.876,1.876,0,0,0,1.683-2.019v-.6A1.876,1.876,0,0,0,124.131,19.341ZM113.493,3.44a1,1,0,0,1,.893,1.072.908.908,0,1,1-1.787,0A1,1,0,0,1,113.493,3.44Zm0,3.069c.917.655,2.709,2.2,3.185,3.687a7.179,7.179,0,0,0-6.369,0C110.783,8.7,112.576,7.164,113.493,6.509Zm0,3.79a7.134,7.134,0,0,1,5.324,2.531h-1.405a.431.431,0,0,0,0,.847h2.073a10.056,10.056,0,0,1,1.331,2.741h-4.568a.431.431,0,0,0,0,.847h4.8a11.222,11.222,0,0,1,.266,2.075H105.676C105.856,14.318,109.293,10.3,113.493,10.3Zm7.958,38.354H105.535V47.307h15.915Zm3.657-3.963v.174h-1.837a.431.431,0,0,0,0,.847h1.769a1,1,0,0,1-.909.748H102.855a1.089,1.089,0,0,1-.977-1.171v-.6a1.089,1.089,0,0,1,.977-1.171h21.276A1.089,1.089,0,0,1,125.107,44.69ZM110.09,42.671h-1.549V36.283a.359.359,0,1,0-.706,0v6.388h-.412V31.892a1.356,1.356,0,1,1,2.668,0Zm4.737,0h-1.175V37.878a.359.359,0,1,0-.706,0v4.793h-.786V27.7a1.356,1.356,0,1,1,2.668,0Zm4.737,0h-.3V35.984a.359.359,0,1,0-.706,0v6.687H116.9V31.892a1.356,1.356,0,1,1,2.668,0Zm1.886,0h-1.18V31.892a2.074,2.074,0,1,0-4.081,0V42.671h-.656V27.7a2.074,2.074,0,1,0-4.081,0V42.671H110.8V31.892a2.074,2.074,0,1,0-4.081,0V42.671h-1.18V25.94h3.275a.431.431,0,0,0,0-.847h-3.275V23.977h15.915Zm3.657-20.712a1.089,1.089,0,0,1-.977,1.171H102.855a1.04,1.04,0,0,1-.955-.929h4.418a.431.431,0,0,0,0-.847h-4.439a1.087,1.087,0,0,1,.976-1.165h21.276a1.089,1.089,0,0,1,.977,1.171Z" transform="translate(-92.17 6)" fill="#49c4b7"/>
  </g>
</svg>
