<svg xmlns="http://www.w3.org/2000/svg" width="14" height="19.269" viewBox="0 0 14 19.269">
  <g id="placeholder" transform="translate(-76)">
    <path id="Path_2" data-name="Path 2" d="M83,0a6.9,6.9,0,0,0-7,6.774,6.522,6.522,0,0,0,1.05,3.556L82.525,19a.554.554,0,0,0,.4.26.588.588,0,0,0,.6-.271l5.491-8.751A6.519,6.519,0,0,0,90,6.774,6.9,6.9,0,0,0,83,0Zm0,10.161a3.44,3.44,0,0,1-3.5-3.387,3.5,3.5,0,0,1,7,0A3.432,3.432,0,0,1,83,10.161Z" fill="#fd003a"/>
    <path id="Path_3" data-name="Path 3" d="M256,0V3.387a3.387,3.387,0,1,1,0,6.774v9.107a.559.559,0,0,0,.5-.278l5.314-8.751a6.681,6.681,0,0,0,.96-3.466A6.78,6.78,0,0,0,256,0Z" transform="translate(-172.774)" fill="#fd003a"/>
  </g>
</svg>
