<svg xmlns="http://www.w3.org/2000/svg" width="21" height="21" viewBox="0 0 21 21">
  <g id="plus" transform="translate(-206 -435)">
    <g id="Path_18" data-name="Path 18" transform="translate(206 435)" fill="none">
      <path d="M10.5,0A10.5,10.5,0,1,1,0,10.5,10.5,10.5,0,0,1,10.5,0Z" stroke="none"/>
      <path d="M 10.5 1 C 5.261679649353027 1 1 5.261679649353027 1 10.5 C 1 15.73831939697266 5.261679649353027 20 10.5 20 C 15.73831939697266 20 20 15.73831939697266 20 10.5 C 20 5.261679649353027 15.73831939697266 1 10.5 1 M 10.5 0 C 16.29899024963379 0 21 4.701009750366211 21 10.5 C 21 16.29899024963379 16.29899024963379 21 10.5 21 C 4.701009750366211 21 0 16.29899024963379 0 10.5 C 0 4.701009750366211 4.701009750366211 0 10.5 0 Z" stroke="none" fill="#707070"/>
    </g>
    <path id="plus-2" data-name="plus" d="M10.045,5v5.045H5v1.682h5.045v5.045h1.682V11.727h5.045V10.045H11.727V5Z" transform="translate(206.114 435.114)" fill="#49c4b7" fill-rule="evenodd" opacity="0.54"/>
  </g>
</svg>
