<svg xmlns="http://www.w3.org/2000/svg" width="16.289" height="17.182" viewBox="0 0 16.289 17.182">
  <g id="settings" transform="translate(0.4 0.4)">
    <path id="Path_16" data-name="Path 16" d="M8.231,16.383H7.259a1.47,1.47,0,0,1-1.426-1.508v-.348a6.068,6.068,0,0,1-.971-.426l-.233.247a1.372,1.372,0,0,1-2.017,0l-.687-.727a1.57,1.57,0,0,1,0-2.133l.233-.246a6.832,6.832,0,0,1-.4-1.027H1.426A1.47,1.47,0,0,1,0,8.705V7.677A1.47,1.47,0,0,1,1.426,6.169h.329a6.833,6.833,0,0,1,.4-1.027L1.925,4.9a1.57,1.57,0,0,1,0-2.133l.687-.727a1.371,1.371,0,0,1,2.017,0l.233.246a6.074,6.074,0,0,1,.971-.426V1.508A1.47,1.47,0,0,1,7.259,0h.972A1.47,1.47,0,0,1,9.657,1.508v.348a6.068,6.068,0,0,1,.971.426l.233-.247a1.372,1.372,0,0,1,2.017,0l.687.727a1.57,1.57,0,0,1,0,2.133l-.233.246a6.832,6.832,0,0,1,.4,1.027h.329a1.47,1.47,0,0,1,1.426,1.508V8.705a1.47,1.47,0,0,1-1.426,1.508h-.329a6.833,6.833,0,0,1-.4,1.027l.233.247a1.57,1.57,0,0,1,0,2.133l-.687.727a1.371,1.371,0,0,1-2.017,0l-.233-.246a6.074,6.074,0,0,1-.971.426v.348A1.47,1.47,0,0,1,8.231,16.383Zm-3.217-3.29A5.192,5.192,0,0,0,6.4,13.7a.476.476,0,0,1,.34.465v.709a.535.535,0,0,0,.518.548h.972a.535.535,0,0,0,.518-.548v-.709a.476.476,0,0,1,.34-.465,5.192,5.192,0,0,0,1.386-.609.435.435,0,0,1,.552.074l.475.5a.5.5,0,0,0,.733,0l.688-.727a.571.571,0,0,0,0-.775l-.475-.5a.5.5,0,0,1-.07-.584,5.841,5.841,0,0,0,.576-1.466.459.459,0,0,1,.439-.36h.67a.535.535,0,0,0,.518-.548V7.677a.535.535,0,0,0-.518-.548h-.67a.459.459,0,0,1-.439-.36A5.842,5.842,0,0,0,12.378,5.3a.5.5,0,0,1,.07-.584l.475-.5a.571.571,0,0,0,0-.775l-.687-.727a.5.5,0,0,0-.733,0l-.475.5a.435.435,0,0,1-.552.074,5.192,5.192,0,0,0-1.386-.609.476.476,0,0,1-.34-.465V1.508A.535.535,0,0,0,8.231.96H7.259a.535.535,0,0,0-.518.548v.709a.476.476,0,0,1-.34.465,5.192,5.192,0,0,0-1.386.609.435.435,0,0,1-.552-.074l-.475-.5a.5.5,0,0,0-.733,0l-.688.727a.571.571,0,0,0,0,.775l.475.5a.5.5,0,0,1,.07.584,5.841,5.841,0,0,0-.576,1.466.459.459,0,0,1-.439.36h-.67a.535.535,0,0,0-.518.548V8.705a.535.535,0,0,0,.518.548H2.1a.459.459,0,0,1,.439.36,5.842,5.842,0,0,0,.576,1.466.5.5,0,0,1-.07.584l-.475.5a.571.571,0,0,0,0,.775l.687.727a.5.5,0,0,0,.733,0l.475-.5A.438.438,0,0,1,5.013,13.092Z" fill="#fd003a" stroke="#fd003a" stroke-width="0.8"/>
    <path id="Path_17" data-name="Path 17" d="M148.164,151.729a3.564,3.564,0,1,1,3.564-3.564A3.569,3.569,0,0,1,148.164,151.729Zm0-6.169a2.6,2.6,0,1,0,2.6,2.6A2.608,2.608,0,0,0,148.164,145.56Z" transform="translate(-140.42 -139.973)" fill="#fd003a" stroke="#fd003a" stroke-width="0.8"/>
  </g>
</svg>
