<svg xmlns="http://www.w3.org/2000/svg" width="97.46" height="97.46" viewBox="0 0 97.46 97.46">
  <g id="unlogo" transform="translate(-495.83 -120.81)">
    <path id="Path_21" data-name="Path 21" d="M592.79,169.54a48.23,48.23,0,1,1-70.4-42.84c.4-.21.81-.42,1.22-.61.25-.12.5-.24.76-.36q.945-.435,1.92-.84c.25-.1.51-.2.76-.3.63-.25,1.27-.48,1.91-.7.25-.09.5-.17.76-.25q.585-.195,1.17-.36a48.253,48.253,0,0,1,61.9,46.26Z" fill="#5a5b5e" stroke="#45b6a6" stroke-linecap="round" stroke-miterlimit="10" stroke-width="1"/>
    <g id="Group_15" data-name="Group 15">
      <rect id="Rectangle_29" data-name="Rectangle 29" width="5.862" height="57.898" transform="translate(523.855 126.059)" fill="#cbcdd3"/>
      <rect id="Rectangle_30" data-name="Rectangle 30" width="12.68" height="4.367" rx="0.334" transform="translate(520.48 140.133)" fill="#45b6a6"/>
      <path id="Path_22" data-name="Path 22" d="M531.27,126.06a10.045,10.045,0,0,1-.63,3.57l-.92,5.24.16-3.73a1.762,1.762,0,0,1-.16.22,3.66,3.66,0,0,1-2.9,1.72,3.728,3.728,0,0,1-2.96-1.79c-.06-.08-.12-.16-.17-.24l.17,4.1-1.02-5.98-.01-.06a9.546,9.546,0,0,1-.44-2.41c.4-.21.81-.42,1.22-.61.25-.12.5-.24.76-.36q.945-.435,1.92-.84c.25-.1.51-.2.76-.3.63-.25,1.27-.48,1.91-.7.25-.09.5-.17.76-.25q.585-.195,1.17-.36A9.884,9.884,0,0,1,531.27,126.06Z" fill="#cbcdd3"/>
      <path id="Path_23" data-name="Path 23" d="M524.37,125.73v1.15c0,.35-.17.63-.38.63a.2.2,0,0,1-.13-.04.662.662,0,0,1-.25-.59v-.79C523.86,125.97,524.11,125.85,524.37,125.73Z" fill="#45b6a6"/>
      <path id="Path_24" data-name="Path 24" d="M527.05,124.59v2.29c-.01.35-.17.63-.38.63s-.38-.28-.38-.63v-1.99C526.54,124.79,526.8,124.69,527.05,124.59Z" fill="#45b6a6"/>
      <path id="Path_25" data-name="Path 25" d="M529.72,123.64v3.24c0,.35-.17.63-.38.63s-.38-.28-.38-.63v-2.99C529.21,123.8,529.46,123.72,529.72,123.64Z" fill="#45b6a6"/>
    </g>
    <path id="Path_4" data-name="Path 4" d="M567.054,196.98H523.342V184.548a4.847,4.847,0,0,1,4.847-4.847h34.018a4.847,4.847,0,0,1,4.847,4.847h0Z" fill="#cbcdd3"/>
    <rect id="Rectangle_4" data-name="Rectangle 4" width="31.977" height="4.873" transform="translate(529.575 174.826)" fill="#45b6a6"/>
    <g id="Group_2" data-name="Group 2">
      <rect id="Rectangle_5" data-name="Rectangle 5" width="1.534" height="3.639" transform="translate(558.428 175.446)" fill="#cbcdd3"/>
      <rect id="Rectangle_6" data-name="Rectangle 6" width="1.534" height="3.639" transform="translate(555.946 175.446)" fill="#cbcdd3"/>
      <rect id="Rectangle_7" data-name="Rectangle 7" width="1.534" height="3.639" transform="translate(553.469 175.446)" fill="#cbcdd3"/>
      <rect id="Rectangle_8" data-name="Rectangle 8" width="1.534" height="3.639" transform="translate(550.991 175.446)" fill="#cbcdd3"/>
      <rect id="Rectangle_9" data-name="Rectangle 9" width="1.534" height="3.639" transform="translate(548.515 175.446)" fill="#cbcdd3"/>
      <rect id="Rectangle_10" data-name="Rectangle 10" width="1.534" height="3.639" transform="translate(546.037 175.446)" fill="#cbcdd3"/>
      <rect id="Rectangle_11" data-name="Rectangle 11" width="1.534" height="3.639" transform="translate(543.56 175.446)" fill="#cbcdd3"/>
      <rect id="Rectangle_12" data-name="Rectangle 12" width="1.534" height="3.639" transform="translate(541.081 175.446)" fill="#cbcdd3"/>
      <rect id="Rectangle_13" data-name="Rectangle 13" width="1.534" height="3.639" transform="translate(538.606 175.446)" fill="#cbcdd3"/>
      <rect id="Rectangle_14" data-name="Rectangle 14" width="1.534" height="3.639" transform="translate(536.125 175.446)" fill="#cbcdd3"/>
      <rect id="Rectangle_15" data-name="Rectangle 15" width="1.534" height="3.639" transform="translate(533.647 175.446)" fill="#cbcdd3"/>
      <rect id="Rectangle_16" data-name="Rectangle 16" width="1.534" height="3.639" transform="translate(531.168 175.446)" fill="#cbcdd3"/>
      <path id="Path_5" data-name="Path 5" d="M529.576,174.825c0-6.69,7.154-15.7,15.989-15.7s15.989,9.012,15.989,15.7Z" fill="#cbcdd3"/>
      <rect id="Rectangle_17" data-name="Rectangle 17" width="6.667" height="1.643" transform="translate(542.231 158.422)" fill="#cbcdd3"/>
    </g>
    <path id="Path_6" data-name="Path 6" d="M545.659,157.8a.626.626,0,0,1-.626-.626v-4.928a.626.626,0,1,1,1.252,0v4.93A.626.626,0,0,1,545.659,157.8Z" fill="#45b6a6"/>
    <rect id="Rectangle_18" data-name="Rectangle 18" width="4.201" height="2.504" transform="translate(543.559 155.916)" fill="#45b6a6"/>
    <g id="Group_3" data-name="Group 3">
      <path id="Path_7" data-name="Path 7" d="M565.027,196.98h-6.148V188.7a2.307,2.307,0,0,1,2.3-2.3h1.537a2.306,2.306,0,0,1,2.306,2.3v8.284Z" fill="#45b6a6"/>
      <path id="Path_8" data-name="Path 8" d="M556.65,196.98H550.5V188.7a2.306,2.306,0,0,1,2.306-2.3h1.537a2.305,2.305,0,0,1,2.305,2.3h0Z" fill="#45b6a6"/>
      <path id="Path_9" data-name="Path 9" d="M548.272,196.98h-6.148V188.7a2.306,2.306,0,0,1,2.306-2.3h1.537a2.306,2.306,0,0,1,2.306,2.3v8.284Z" fill="#45b6a6"/>
      <path id="Path_10" data-name="Path 10" d="M539.9,196.98h-6.148V188.7a2.306,2.306,0,0,1,2.305-2.3h1.537a2.305,2.305,0,0,1,2.3,2.3h0v8.284Z" fill="#45b6a6"/>
      <path id="Path_11" data-name="Path 11" d="M531.517,196.98h-6.148V188.7a2.306,2.306,0,0,1,2.3-2.3h1.537a2.305,2.305,0,0,1,2.3,2.3h0v8.284Z" fill="#45b6a6"/>
    </g>
    <rect id="Rectangle_19" data-name="Rectangle 19" width="34.182" height="1.233" transform="translate(528.443 173.784)" fill="#45b6a6"/>
    <path id="Path_12" data-name="Path 12" d="M545.248,149.235a6.971,6.971,0,0,1-.465-8.553,6.975,6.975,0,1,0,8.874,10.188A6.972,6.972,0,0,1,545.248,149.235Z" fill="#45b6a6"/>
    <path id="Path_13" data-name="Path 13" d="M578.287,140.745l-10.292,9.541,10.292,9.541-10.292,9.542,10.358,9.6-10.028,9.3,10.226,9.48" fill="none" stroke="#45b6a6" stroke-linecap="round" stroke-miterlimit="10" stroke-width="1"/>
    <path id="Path_13-2" data-name="Path 13" d="M581.565,140.745l-10.292,9.541,10.292,9.541-10.292,9.542,10.358,9.6-10.028,9.3,10.226,9.48" fill="none" stroke="#45b6a6" stroke-linecap="round" stroke-miterlimit="10" stroke-width="1"/>
    <path id="Path_14" data-name="Path 14" d="M512.047,139.953l10.292,9.541L520,151.659l-7.957,7.377,10.292,9.541-10.358,9.6,10.028,9.3-10.226,9.476" fill="none" stroke="#45b6a6" stroke-linecap="round" stroke-miterlimit="10" stroke-width="1"/>
    <path id="Path_14-2" data-name="Path 14" d="M508.137,139.953l10.292,9.541-2.335,2.165-7.957,7.377,10.292,9.541-10.358,9.6,10.028,9.3-10.226,9.476" fill="none" stroke="#45b6a6" stroke-linecap="round" stroke-miterlimit="10" stroke-width="1"/>
  </g>
</svg>
